<svg xmlns="http://www.w3.org/2000/svg" version="1.1" xmlns:xlink="http://www.w3.org/1999/xlink" width="200" height="200"><svg xmlns="http://www.w3.org/2000/svg" version="1.1" xmlns:xlink="http://www.w3.org/1999/xlink" viewBox="0 0 200 200"><rect width="200" height="200" fill="url('#gradient')"></rect><defs><linearGradient id="SvgjsLinearGradient1001" gradientTransform="rotate(45 0.5 0.5)"><stop offset="0%" stop-color="#0fa883"></stop><stop offset="100%" stop-color="#0fa883"></stop></linearGradient></defs><g><g fill="#000000" transform="matrix(8.553132250580047,0,0,8.553132250580047,2.8816467893095847,160.7743761828217)" stroke="#d7b7a0" stroke-width="0"><path d="M10.74-8.40L10.74-5.81Q10.74-2.93 9.45-1.37Q8.15 0.20 5.80 0.20L5.80 0.20Q3.43 0.20 2.13-1.38Q0.83-2.95 0.83-5.81L0.83-5.81L0.83-8.41Q0.83-11.29 2.12-12.85Q3.42-14.41 5.78-14.41Q8.14-14.41 9.44-12.84Q10.74-11.27 10.74-8.40L10.74-8.40ZM7.45-5.31L7.45-8.83Q7.45-10.36 7.05-11.12Q6.65-11.88 5.78-11.88L5.78-11.88Q4.93-11.88 4.55-11.17Q4.16-10.47 4.13-9.04L4.13-9.04L4.13-5.41Q4.13-3.82 4.53-3.08Q4.93-2.34 5.80-2.34L5.80-2.34Q6.64-2.34 7.04-3.06Q7.44-3.78 7.45-5.31L7.45-5.31ZM15.30-10.57L16.79-7.66L18.32-10.57L21.74-10.57L18.96-5.42L21.88 0L18.44 0L16.78-3.13L15.15 0L11.69 0L14.62-5.42L11.85-10.57L15.30-10.57Z"></path></g></g></svg><style>@media (prefers-color-scheme: light) { :root { filter: none; } }
@media (prefers-color-scheme: dark) { :root { filter: none; } }
</style></svg>